<p>[gdigrab @ 0000022d88743540] Capturing whole desktop as 1920x1080x32 at (0,0)
</p><p>[gdigrab @ 0000022d88743540] Stream #0: not enough frames to estimate rate; consider increasing probesize
Input #0, gdigrab, from 'desktop':
  Duration: N/A, start: 1520665276.139730, bitrate: 1658890 kb/s
    Stream #0:0: Video: bmp, bgra, 1920x1080, 1658890 kb/s, 25 fps, 1000k tbr, 1000k tbn, 1000k tbc
</p><p>Guessed Channel Layout for Input Stream #1.0 : stereo
Input #1, dshow, from 'audio=立体声混音 (Realtek High Definition Audio)':
  Duration: N/A, start: 20347.421000, bitrate: 1411 kb/s
</p><p>    Stream #1:0: Audio: pcm_s16le, 44100 Hz, stereo, s16, 1411 kb/s
</p><p>Stream mapping:
  Stream #0:0 -> #0:0 (bmp (native) -> h264 (libx264))
  Stream #1:0 -> #0:1 (pcm_s16le (native) -> aac (native))
Press [q] to stop, [?] for help
</p><p>[libx264 @ 0000022d887b71e0] using cpu capabilities: MMX2 SSE2Fast SSSE3 SSE4.2 AVX FMA3 BMI2 AVX2
</p><p>[libx264 @ 0000022d887b71e0] profile High, level 3.1
</p><p>[libx264 @ 0000022d887b71e0] 264 - core 155 r2901 7d0ff22 - H.264/MPEG-4 AVC codec - Copyleft 2003-2018 - http://www.videolan.org/x264.html - options: cabac=1 ref=3 deblock=1:0:0 analyse=0x3:0x113 me=hex subme=7 psy=1 psy_rd=1.00:0.00 mixed_ref=1 me_range=16 chroma_me=1 trellis=1 8x8dct=1 cqm=0 deadzone=21,11 fast_pskip=1 chroma_qp_offset=-2 threads=12 lookahead_threads=2 sliced_threads=0 nr=0 decimate=1 interlaced=0 bluray_compat=0 constrained_intra=0 bframes=3 b_pyramid=2 b_adapt=1 b_bias=0 direct=1 weightb=1 open_gop=0 weightp=2 keyint=250 keyint_min=25 scenecut=40 intra_refresh=0 rc_lookahead=40 rc=abr mbtree=1 bitrate=1024 ratetol=1.0 qcomp=0.60 qpmin=0 qpmax=69 qpstep=4 ip_ratio=1.40 aq=1:1.00
</p><p>Output #0, mp4, to 'C:\Users\wwp\desktop\fup00.mp4':
  Metadata:
    encoder         : Lavf57.83.100
</p><p>    Stream #0:0: Video: h264 (libx264) (avc1 / 0x31637661), yuv420p(progressive), 1280x720, q=-1--1, 1024 kb/s, 25 fps, 12800 tbn, 25 tbc
    Metadata:
      encoder         : Lavc57.107.100 libx264
    Side data:
      cpb: bitrate max/min/avg: 0/0/1024000 buffer size: 0 vbv_delay: -1
    Stream #0:1: Audio: aac (LC) (mp4a / 0x6134706D), 44100 Hz, stereo, fltp, 128 kb/s
    Metadata:
      encoder         : Lavc57.107.100 aac
</p><p>frame=   16 fps=0.0 q=0.0 size=       0kB time=00:00:00.44 bitrate=   0.0kbits/s speed=0.846x    </p><p>frame=   30 fps= 29 q=0.0 size=       0kB time=00:00:00.44 bitrate=   0.0kbits/s speed=0.429x    </p><p>frame=   42 fps= 27 q=0.0 size=       0kB time=00:00:00.44 bitrate=   0.0kbits/s speed=0.287x    </p><p>frame=   55 fps= 27 q=0.0 size=       0kB time=00:00:00.44 bitrate=   0.0kbits/s speed=0.215x    </p><p>frame=   68 fps= 26 q=37.0 size=       0kB time=00:00:00.44 bitrate=   0.9kbits/s speed=0.172x    </p><p>frame=   80 fps= 26 q=27.0 size=       0kB time=00:00:00.96 bitrate=   0.4kbits/s speed=0.312x    </p><p>frame=   91 fps= 25 q=24.0 size=       0kB time=00:00:01.45 bitrate=   0.3kbits/s speed=0.403x    </p><p>frame=  104 fps= 25 q=29.0 size=       0kB time=00:00:01.96 bitrate=   0.2kbits/s speed=0.476x    </p><p>frame=  117 fps= 25 q=29.0 size=     256kB time=00:00:02.44 bitrate= 856.5kbits/s speed=0.526x    </p><p>frame=  130 fps= 25 q=27.0 size=     256kB time=00:00:02.95 bitrate= 708.6kbits/s speed=0.572x    </p><p>frame=  143 fps= 25 q=25.0 size=     256kB time=00:00:03.44 bitrate= 608.4kbits/s speed=0.606x    </p><p>frame=  156 fps= 25 q=23.0 size=     256kB time=00:00:03.95 bitrate= 529.8kbits/s speed=0.637x    </p><p>frame=  168 fps= 25 q=22.0 size=     256kB time=00:00:04.44 bitrate= 471.8kbits/s speed=0.662x    </p><p>frame=  181 fps= 25 q=20.0 size=     256kB time=00:00:04.95 bitrate= 423.1kbits/s speed=0.683x    </p><p>frame=  194 fps= 25 q=18.0 size=     512kB time=00:00:05.44 bitrate= 770.3kbits/s speed=0.701x    </p><p>frame=  206 fps= 25 q=17.0 size=     512kB time=00:00:05.95 bitrate= 704.2kbits/s speed=0.719x    </p><p>frame=  217 fps= 25 q=17.0 size=     512kB time=00:00:06.44 bitrate= 651.0kbits/s speed=0.732x    </p><p>frame=  230 fps= 25 q=16.0 size=     512kB time=00:00:06.95 bitrate= 603.2kbits/s speed=0.746x    </p><p>frame=  244 fps= 25 q=16.0 size=     512kB time=00:00:07.44 bitrate= 563.7kbits/s speed=0.754x    </p><p>frame=  256 fps= 25 q=15.0 size=     512kB time=00:00:07.95 bitrate= 527.5kbits/s speed=0.767x    </p><p>frame=  269 fps= 25 q=15.0 size=     512kB time=00:00:08.46 bitrate= 495.6kbits/s speed=0.777x    </p><p>frame=  281 fps= 25 q=14.0 size=     512kB time=00:00:08.95 bitrate= 468.6kbits/s speed=0.785x    </p><p>frame=  294 fps= 25 q=14.0 size=     512kB time=00:00:09.46 bitrate= 443.3kbits/s speed=0.794x    </p><p>frame=  308 fps= 25 q=21.0 size=     768kB time=00:00:09.96 bitrate= 631.7kbits/s speed= 0.8x    </p><p>frame=  320 fps= 25 q=14.0 size=     768kB time=00:00:10.94 bitrate= 574.7kbits/s speed=0.844x    </p><p>frame=  333 fps= 25 q=13.0 size=     768kB time=00:00:11.45 bitrate= 549.1kbits/s speed=0.85x    </p><p>frame=  345 fps= 25 q=13.0 size=     768kB time=00:00:11.45 bitrate= 549.1kbits/s speed=0.818x    </p><p>frame=  357 fps= 25 q=12.0 size=     768kB time=00:00:11.94 bitrate= 526.7kbits/s speed=0.823x    </p><p>frame=  369 fps= 25 q=12.0 size=     768kB time=00:00:12.45 bitrate= 505.0kbits/s speed=0.828x    </p><p>frame=  370 fps= 24 q=-1.0 Lsize=    1003kB time=00:00:14.68 bitrate= 559.9kbits/s speed=0.966x    
video:796kB audio:195kB subtitle:0kB other streams:0kB global headers:0kB muxing overhead: 1.256421%
</p><p>[libx264 @ 0000022d887b71e0] frame I:2     Avg QP:12.72  size:139044
[libx264 @ 0000022d887b71e0] frame P:102   Avg QP:12.99  size:  4381
</p><p>[libx264 @ 0000022d887b71e0] frame B:266   Avg QP:21.03  size:   335
[libx264 @ 0000022d887b71e0] consecutive B-frames:  2.7%  3.8%  1.6% 91.9%
[libx264 @ 0000022d887b71e0] mb I  I16..4: 49.5% 15.2% 35.4%
[libx264 @ 0000022d887b71e0] mb P  I16..4:  1.0%  0.3%  0.3%  P16..4:  6.5%  0.5%  0.5%  0.0%  0.0%    skip:90.8%
[libx264 @ 0000022d887b71e0] mb B  I16..4:  0.1%  0.0%  0.0%  B16..8:  3.8%  0.1%  0.0%  direct: 0.1%  skip:95.9%  L0:20.8% L1:78.4% BI: 0.7%
[libx264 @ 0000022d887b71e0] final ratefactor: 11.17
[libx264 @ 0000022d887b71e0] 8x8 transform intra:18.2% inter:39.8%
[libx264 @ 0000022d887b71e0] coded y,uvDC,uvAC intra: 21.2% 16.0% 14.1% inter: 1.0% 0.9% 0.7%
[libx264 @ 0000022d887b71e0] i16 v,h,dc,p: 52% 48%  1%  0%
[libx264 @ 0000022d887b71e0] i8 v,h,dc,ddl,ddr,vr,hd,vl,hu: 53%  8% 37%  0%  0%  0%  0%  0%  0%
[libx264 @ 0000022d887b71e0] i4 v,h,dc,ddl,ddr,vr,hd,vl,hu: 30% 33% 15%  2%  3%  3%  4%  3%  5%
[libx264 @ 0000022d887b71e0] i8c dc,h,v,p: 66% 24% 10%  0%
[libx264 @ 0000022d887b71e0] </p><p>Weighted P-Frames: Y:0.0% UV:0.0%
[libx264 @ 0000022d887b71e0] ref P L0: 76.4%  3.8% 17.2%  2.6%
[libx264 @ 0000022d887b71e0] ref B L0: 65.1% 33.0%  1.9%
[libx264 @ 0000022d887b71e0] ref B L1: 94.5%  5.5%
[libx264 @ 0000022d887b71e0] kb/s:440.02
</p><p>[aac @ 0000022d887ba160] Qavg: 233.615
</p>